<?xml version="1.0" encoding="UTF-8"?>
<svg xmlns="http://www.w3.org/2000/svg" width="512" height="512" viewBox="0 0 512 512" style="overflow: visible;" data-bbox="21.40331359657219 130.1103991639469 462.1807310861898 251.77920167210613">
  <rect class="svg__background" data-uid="o_fb3n1cam5_6" data-fl-background="" x="0" y="0" width="512" height="512" fill="#083a53"></rect>
  <path class="svg__text" fill="#a0f2c9" text-anchor="middle" offset="0.5" font-size="48" font-family="Exo 2" transform="matrix(1.9964486360549927, 0, 0, 1.9964486360549927, 254.22116088867188, 321.9327392578125)" data-fl-textpath="" font-style="normal" font-weight="700" data-uid="o_fb3n1cam5_7" d="M-104.426-33.12L-97.466-33.12Q-96.556-33.12 -95.856-32.59Q-95.156-32.06 -94.916-31.2L-94.916-31.2L-85.316 0L-92.806 0L-99.576-24.34Q-99.766-25.15 -99.956-25.99Q-100.156-26.83 -100.296-27.6L-100.296-27.6L-101.596-27.6Q-101.736-26.83 -101.906-25.99Q-102.076-25.15 -102.316-24.34L-102.316-24.34L-109.076 0L-116.616 0L-106.966-31.2Q-106.726-32.06 -106.036-32.59Q-105.336-33.12 -104.426-33.12L-104.426-33.12ZM-109.556-14.26L-92.376-14.26L-92.376-8.74L-109.556-8.74L-109.556-14.26ZM-82.342-33.6L-75.242-33.6L-75.292-7.58Q-75.292-6.38 -74.572-5.78Q-73.852-5.18 -72.452-5.18L-72.452-5.18L-70.532-5.18L-69.722-0.38Q-70.292-0.1 -71.352 0.12Q-72.412 0.34 -73.512 0.46Q-74.612 0.58 -75.382 0.58L-75.382 0.58Q-78.602 0.58 -80.472-1.1Q-82.342-2.78 -82.342-5.81L-82.342-5.81L-82.342-33.6ZM-55.418-24.34L-55.418-24.34Q-49.418-24.34 -46.798-22.3Q-44.188-20.26 -44.188-16.22L-44.188-16.22Q-44.138-12.96 -45.818-11.35Q-47.498-9.74 -51.628-9.74L-51.628-9.74L-64.868-9.74L-64.868-13.73L-53.588-13.73Q-51.958-13.73 -51.508-14.42Q-51.048-15.12 -51.048-16.37L-51.048-16.37Q-51.098-18.05 -52.028-18.7Q-52.968-19.34 -55.178-19.34L-55.178-19.34Q-57.148-19.34 -58.248-18.82Q-59.348-18.29 -59.788-16.8Q-60.218-15.31 -60.218-12.48L-60.218-12.48Q-60.218-9.5 -59.688-7.9Q-59.158-6.29 -57.888-5.66Q-56.618-5.04 -54.358-5.04L-54.358-5.04Q-52.728-5.04 -50.308-5.16Q-47.878-5.28 -45.428-5.57L-45.428-5.57L-44.758-1.2Q-46.148-0.53 -47.928-0.14Q-49.708 0.24 -51.578 0.41Q-53.448 0.58 -55.178 0.58L-55.178 0.58Q-59.688 0.58 -62.448-0.74Q-65.208-2.06 -66.428-4.8Q-67.658-7.54 -67.658-11.81L-67.658-11.81Q-67.658-16.46 -66.408-19.2Q-65.158-21.94 -62.468-23.14Q-59.788-24.34 -55.418-24.34ZM-23.542-23.71L-16.342-23.71L-23.212-12.14L-15.812 0L-23.012 0L-30.022-12.14L-23.542-23.71ZM-41.542-23.71L-34.342-23.71L-27.862-12.14L-34.822 0L-42.072 0L-34.682-12.14L-41.542-23.71ZM-32.662-14.45L-25.172-14.45L-25.172-10.03L-32.662-10.03L-32.662-14.45ZM-0.022-24.34L-0.022-24.34Q 2.948-24.34  5.018-23.54Q 7.078-22.75  8.158-20.86Q 9.238-18.96  9.238-15.65L 9.238-15.65L 9.238 0L 3.578 0L 2.568-5.14L 2.088-5.86L 2.088-15.7Q 2.088-17.38  1.298-18.14Q 0.508-18.91 -1.702-18.91L-1.702-18.91Q-3.532-18.91 -6.262-18.79Q-9.002-18.67 -11.882-18.48L-11.882-18.48L-12.552-23.18Q-10.822-23.52 -8.572-23.76Q-6.312-24 -4.052-24.17Q-1.802-24.34 -0.022-24.34ZM-6.502-14.59L 6.308-14.59L 6.268-10.61L-4.292-10.56Q-5.592-10.56 -6.142-9.94Q-6.692-9.31 -6.692-8.26L-6.692-8.26L-6.692-7.1Q-6.692-5.9 -6.022-5.26Q-5.352-4.61 -3.862-4.61L-3.862-4.61Q-2.612-4.61 -1.152-5.14Q 0.308-5.66  1.748-6.62Q 3.188-7.58  4.298-8.88L 4.298-8.88L 4.298-5.81Q 3.868-5.09  3.028-4.01Q 2.188-2.93  0.888-1.9Q-0.412-0.86 -2.132-0.14Q-3.862 0.58 -6.072 0.58L-6.072 0.58Q-8.232 0.58 -9.962-0.19Q-11.692-0.96 -12.692-2.45Q-13.702-3.94 -13.702-6.14L-13.702-6.14L-13.702-8.59Q-13.702-11.42 -11.782-13.01Q-9.862-14.59 -6.502-14.59L-6.502-14.59ZM 31.318-24.34L 31.318-24.34Q 38.038-24.34  38.038-17.76L 38.038-17.76L 38.038 0L 30.938 0L 30.938-15.55Q 30.938-17.14  30.358-17.74Q 29.788-18.34  28.388-18.34L 28.388-18.34Q 26.858-18.34  25.228-17.74Q 23.588-17.14  21.188-15.89L 21.188-15.89L 20.858-19.87Q 23.398-22.03  26.068-23.18Q 28.728-24.34  31.318-24.34ZM 14.808-23.71L 20.518-23.71L 21.338-19.01L 21.908-18.38L 21.908 0L 14.808 0L 14.808-23.71ZM 51.766-24.34L 51.766-24.34Q 54.266-24.34  56.596-23.62Q 58.916-22.9  60.696-21.26L 60.696-21.26L 60.216-18Q 58.586-18.48  57.286-18.86Q 55.996-19.25  54.266-19.25L 54.266-19.25Q 52.776-19.25  51.866-18.72Q 50.956-18.19  50.516-16.66Q 50.086-15.12  50.086-12.1L 50.086-12.1Q 50.086-9.26  50.496-7.8Q 50.906-6.34  51.796-5.78Q 52.676-5.23  54.076-5.23L 54.076-5.23Q 55.316-5.23  56.236-5.5Q 57.146-5.76  58.056-6.31Q 58.966-6.86  60.116-7.68L 60.116-7.68L 60.646-4.18Q 59.206-2.16  56.906-0.79Q 54.596 0.58  51.236 0.58L 51.236 0.58Q 46.676 0.58  44.736-2.69Q 42.796-5.95  42.796-12.05L 42.796-12.05Q 42.796-16.8  43.776-19.46Q 44.756-22.13  46.776-23.23Q 48.796-24.34  51.766-24.34ZM 59.396-33.6L 66.506-33.6L 66.506 0L 60.886 0L 60.166-4.37L 59.396-4.9L 59.396-20.45L 59.686-21.07Q 59.546-22.56  59.476-24.07Q 59.396-25.58  59.396-27.17L 59.396-27.17L 59.396-33.6ZM 72.312-23.71L 77.882-23.71L 78.742-19.01L 79.412-18.38L 79.412 0L 72.312 0L 72.312-23.71ZM 88.202-24.34L 89.452-24.34L 88.772-17.76L 86.812-17.76Q 85.132-17.76  83.302-17.28Q 81.482-16.8  78.692-15.84L 78.692-15.84L 78.212-19.82Q 80.712-22.03  83.252-23.18Q 85.802-24.34  88.202-24.34L 88.202-24.34ZM 103.654-24.34L 103.654-24.34Q 109.654-24.34  112.274-22.3Q 114.884-20.26  114.884-16.22L 114.884-16.22Q 114.934-12.96  113.254-11.35Q 111.574-9.74  107.444-9.74L 107.444-9.74L 94.204-9.74L 94.204-13.73L 105.484-13.73Q 107.114-13.73  107.564-14.42Q 108.024-15.12  108.024-16.37L 108.024-16.37Q 107.974-18.05  107.044-18.7Q 106.104-19.34  103.894-19.34L 103.894-19.34Q 101.924-19.34  100.824-18.82Q 99.724-18.29  99.284-16.8Q 98.854-15.31  98.854-12.48L 98.854-12.48Q 98.854-9.5  99.384-7.9Q 99.914-6.29  101.184-5.66Q 102.454-5.04  104.714-5.04L 104.714-5.04Q 106.344-5.04  108.764-5.16Q 111.194-5.28  113.644-5.57L 113.644-5.57L 114.314-1.2Q 112.924-0.53  111.144-0.14Q 109.364 0.24  107.494 0.41Q 105.624 0.58  103.894 0.58L 103.894 0.58Q 99.384 0.58  96.624-0.74Q 93.864-2.06  92.644-4.8Q 91.414-7.54  91.414-11.81L 91.414-11.81Q 91.414-16.46  92.664-19.2Q 93.914-21.94  96.604-23.14Q 99.284-24.34  103.654-24.34Z"></path>
  <path class="svg__logo" d="M198.1 228.1l-21.5-50.7h-31.6l-36.5 85.6l43.1-23.2c2.9-7.1 5.8-14.2 8.7-21.2c3.3 8.1 6.7 16.3 10 24.4 L73 295.5l5.3 39l183.9-136.7L198.1 228.1z M243.3 334.5l-34.4-80.9l-26.5 19.3l0 0l60.8 61.5l-0.1 0.1L243.3 334.5L243.3 334.5z" fill-rule="evenodd" clip-rule="evenodd" fill="#a0f2c9" transform="matrix(0.6461767554283142, 0, 0, 0.6461767554283142, 147.7008056640625, 15.478645324707031)" data-uid="o_fb3n1cam5_8"></path>
  <path class="svg__text" fill="#a0f2c9" text-anchor="middle" offset="0.5" font-size="48" font-family="Exo 2" transform="matrix(0.6457188725471497, 0, 0, 0.6457188725471497, 254.9293975830078, 381.4892578125)" data-fl-textpath="" font-style="italic" font-weight="400" letter-spacing="8" data-uid="o_fb3n1cam5_9" d="M-77.192-33.12L-72.922-33.12L-75.802-12.62Q-76.472-7.82 -78.052-4.9Q-79.642-1.97 -82.372-0.67Q-85.112 0.62 -89.292 0.62L-89.292 0.62Q-93.512 0.62 -96.102-0.72Q-98.692-2.06 -99.632-5.02Q-100.572-7.97 -99.852-12.82L-99.852-12.82L-97.062-33.12L-92.792-33.12L-95.672-12.62Q-96.152-9.07 -95.742-6.98Q-95.332-4.9 -93.802-4.03Q-92.262-3.17 -89.382-3.17L-89.382-3.17Q-86.452-3.17 -84.562-4.08Q-82.662-4.99 -81.582-7.13Q-80.502-9.26 -79.972-12.82L-79.972-12.82L-77.192-33.12ZM-45.67-33.55L-45.67-33.55Q-42.22-33.55 -39.91-32.69Q-37.61-31.82 -36.58-29.71Q-35.54-27.6 -36.07-23.81L-36.07-23.81Q-36.41-21.31 -37.27-19.54Q-38.14-17.76 -39.65-16.75Q-41.16-15.74 -43.46-15.46L-43.46-15.46L-43.51-15.22Q-42.6-14.98 -41.9-14.35Q-41.21-13.73 -40.73-12.74Q-40.25-11.76 -40.01-10.37L-40.01-10.37L-37.9 0L-42.22 0L-44.18-10.46Q-44.52-12.34 -45.43-13.08Q-46.34-13.82 -47.93-13.82L-47.93-13.82Q-50.95-13.87 -53.09-13.9Q-55.22-13.92 -56.64-13.94Q-58.06-13.97 -59.02-13.97L-59.02-13.97L-58.49-17.47L-47.88-17.47Q-45.43-17.52 -43.92-18.1Q-42.41-18.67 -41.54-20.06Q-40.68-21.46 -40.34-23.95L-40.34-23.95Q-40.01-26.26 -40.39-27.55Q-40.78-28.85 -42.07-29.38Q-43.37-29.9 -45.77-29.9L-45.77-29.9Q-49.85-29.9 -52.7-29.86Q-55.56-29.81 -56.57-29.81L-56.57-29.81L-56.9-33.12Q-55.08-33.31 -53.42-33.41Q-51.77-33.5 -49.92-33.53Q-48.07-33.55 -45.67-33.55ZM-56.9-33.12L-52.78-33.12L-57.43 0L-61.56 0L-56.9-33.12ZM-8.636-33.5L-8.636-33.5Q-4.696-33.5 -2.316-32.74Q 0.054-31.97  0.944-30.05Q 1.834-28.13  1.354-24.72L 1.354-24.72Q 0.874-21.22 -0.666-19.37Q-2.196-17.52 -5.276-17.23L-5.276-17.23L-5.316-17.04Q-1.626-16.7 -0.496-14.33Q 0.634-11.95  0.054-8.11L 0.054-8.11Q-0.476-4.7 -1.746-2.86Q-3.016-1.01 -5.346-0.31Q-7.676 0.38 -11.416 0.38L-11.416 0.38Q-14.296 0.38 -16.386 0.36Q-18.476 0.34 -20.226 0.24Q-21.976 0.14 -23.896 0L-23.896 0L-22.836-3.36Q-21.736-3.31 -18.856-3.26Q-15.976-3.22 -12.036-3.22L-12.036-3.22Q-9.306-3.22 -7.676-3.7Q-6.036-4.18 -5.196-5.47Q-4.356-6.77 -4.076-9.12L-4.076-9.12Q-3.686-11.66 -4.146-13.03Q-4.596-14.4 -6.066-14.95Q-7.526-15.5 -10.266-15.55L-10.266-15.55L-21.066-15.55L-20.586-18.77L-10.076-18.77Q-7.676-18.82 -6.156-19.3Q-4.646-19.78 -3.836-21.02Q-3.016-22.27 -2.726-24.53L-2.726-24.53Q-2.396-26.78 -2.876-27.94Q-3.356-29.09 -4.796-29.5Q-6.236-29.9 -8.826-29.9L-8.826-29.9Q-11.226-29.9 -13.146-29.9Q-15.066-29.9 -16.476-29.9Q-17.896-29.9 -18.856-29.81L-18.856-29.81L-19.236-33.12Q-17.556-33.31 -16.026-33.38Q-14.486-33.46 -12.736-33.48Q-10.986-33.5 -8.636-33.5ZM-19.236-33.12L-15.116-33.12L-19.766 0L-23.896 0L-19.236-33.12ZM 26.968-33.12L 31.388-33.12Q 31.958-33.12  32.368-32.76Q 32.778-32.4  32.828-31.87L 32.828-31.87L 39.018 0L 34.788 0L 30.038-27.07Q 29.948-27.79  29.848-28.51Q 29.748-29.23  29.658-29.9L 29.658-29.9L 28.218-29.9Q 27.928-29.28  27.588-28.51Q 27.258-27.74  26.968-27.07L 26.968-27.07L 14.628 0L 10.168 0L 25.338-32.02Q 25.528-32.59  25.958-32.86Q 26.388-33.12  26.968-33.12L 26.968-33.12ZM 18.138-14.02L 34.938-14.02L 34.458-10.32L 17.658-10.32L 18.138-14.02ZM 56.14-33.12L 60.41-33.12L 55.75 0L 51.48 0L 56.14-33.12ZM 97.978-33.12L 102.148-33.12L 97.688-1.58Q 97.588-0.77  97.208-0.38Q 96.828 0  96.008 0L 96.008 0L 92.168 0Q 91.448 0  91.068-0.38Q 90.678-0.77  90.438-1.44L 90.438-1.44L 82.138-24.91Q 81.798-25.82  81.438-27Q 81.078-28.18  80.838-29.18L 80.838-29.18L 80.028-29.18Q 79.978-28.13  79.878-27.02Q 79.788-25.92  79.638-24.82L 79.638-24.82L 76.228 0L 72.008 0L 76.428-31.54Q 76.568-32.35  76.998-32.74Q 77.428-33.12  78.198-33.12L 78.198-33.12L 81.948-33.12Q 82.668-33.12  83.048-32.74Q 83.428-32.35  83.668-31.68L 83.668-31.68L 91.738-8.83Q 92.118-7.78  92.528-6.5Q 92.938-5.23  93.268-4.03L 93.268-4.03L 94.188-4.03Q 94.278-5.28  94.378-6.48Q 94.468-7.68  94.668-8.88L 94.668-8.88L 97.978-33.12Z"></path>
</svg>
